PathFileType	4	(X/Y/Z)	Patient4_TMGait_0pt5_02_left_26.trc.trc
DataRate	CameraRate	NumFrames	NumMarkers	Units	OrigDataRate	OrigDataStartFrame	OrigNumFrames
78.212290502793	78.212290502793	5	33	mm	78.212290502793	124	       141
Frame#	Time	Sacral			L.Shoulder			Chest			R.Shoulder			Neck			R.ASIS			L.ASIS			R.Thigh.Superior			R.Thigh.Lateral			R.Thigh.Inferior			R.Patella			L.Thigh.Superior			L.Thigh.Lateral			L.Thigh.Inferior			L.Patella			L.Shank.Superior			L.Shank.Lateral			L.Shank.Inferior			R.Shank.Superior			R.Shank.Lateral			R.Shank.Inferior			R.Heel			R.Midfoot.Superior			R.Midfoot.Lateral			R.Toe			L.Heel			L.Midfoot.Lateral			L.Midfoot.Superior			L.Toe			L.Elbow			L.Wrist			R.Elbow			R.Wrist			
		X1	Y1	Z1	X2	Y2	Z2	X3	Y3	Z3	X4	Y4	Z4	X5	Y5	Z5	X6	Y6	Z6	X7	Y7	Z7	X8	Y8	Z8	X9	Y9	Z9	X10	Y10	Z10	X11	Y11	Z11	X12	Y12	Z12	X13	Y13	Z13	X14	Y14	Z14	X15	Y15	Z15	X16	Y16	Z16	X17	Y17	Z17	X18	Y18	Z18	X19	Y19	Z19	X20	Y20	Z20	X21	Y21	Z21	X22	Y22	Z22	X23	Y23	Z23	X24	Y24	Z24	X25	Y25	Z25	X26	Y26	Z26	X27	Y27	Z27	X28	Y28	Z28	X29	Y29	Z29	X30	Y30	Z30	X31	Y31	Z31	X32	Y32	Z32	X33	Y33	Z33	

124	34.782642857143	623.092556430216	1000.733954673887	512.978992930455	762.171126941617	1436.472590861930	333.624227251414	891.400887713753	1357.591140258037	469.751812019202	838.577602375980	1420.895825975302	659.303192667114	786.200835623981	1487.761145239128	486.360331814563	856.750909638594	933.219184320529	605.772635570322	818.109906986523	954.171058787665	332.582227709082	852.269962372272	721.561569889204	580.872790458122	746.785704270685	628.735788869719	642.761822513989	805.921088859164	562.096049265341	563.039737114662	785.205087926944	476.079557498715	566.716910803019	893.585098116749	767.471404382787	361.324195680482	838.896565646069	635.219243410766	292.663537962011	943.924986871039	577.920475591722	350.130716565727	970.467023313311	513.948246319905	348.875264792531	957.614707689118	442.390233312608	341.365982126407	897.199340144904	307.984496231044	296.652217444234	991.356324811625	215.869403606933	351.580789067713	744.664113537422	393.857857531969	572.370048380175	658.179459312949	300.429524141528	630.562769934229	687.828251663144	201.480125405000	566.258779274531	536.960358003519	44.069690905204	528.843987560778	708.306599287282	96.333687743468	569.043765338109	618.259564646164	36.265258197263	605.351085251370	826.565950296275	41.732901505362	600.183671196592	916.446191508817	37.671168835862	396.600618773414	987.624567628208	42.325418664125	313.821859498013	1057.540692539852	119.703798844143	331.500492740119	1190.664608262480	91.586718213149	301.588986629621	609.901750941848	1119.293603143856	231.937613506319	605.177673792102	856.007242972224	251.841822227293	983.486715146382	1103.364727515337	736.229557014915	1207.400643842504	1146.287669646225	624.993547062725	
125	34.795428571429	624.815610089567	999.319264298698	510.443377327004	763.168559013441	1434.869018025434	330.954776781356	892.173651627963	1356.645389698015	467.688883184169	838.366580484597	1420.111055262562	656.919850272499	786.515529568707	1486.555659805699	483.676462697828	858.077983876211	931.992842592847	604.677442711293	820.850482295740	952.415119988821	331.362365837800	853.046174387778	720.049860709050	580.137915595259	746.736963155000	627.739053550394	641.577038447640	805.746890985106	560.619376745532	562.081054262923	784.184284235326	474.302194716963	565.590542609053	895.844756729017	765.060364887360	360.931385960175	840.126750639976	633.179952910366	292.504030425663	944.622487246990	575.695823373628	350.649222071520	970.184365090556	511.014235326305	349.817900180074	957.003961761745	439.208964148617	342.133625776644	895.135854589942	305.345359022998	297.752409463664	987.921951467280	212.252236669996	353.324885661380	742.577744769923	392.476799108160	571.439870569933	654.909396705952	300.270766498326	629.944139570950	683.035215052160	200.846247238832	565.833500020916	530.574830193773	44.356845944751	528.884070163657	701.999709283145	96.295432368789	569.058383763792	611.877515249235	36.316611419904	605.373894623728	820.221008941711	41.345556571345	600.268922284415	909.398453700283	36.759158322172	398.061503423794	980.927546352246	39.967602713911	315.451546474652	1053.277986310816	114.665948919680	334.305363831676	1185.712627271610	82.231048971504	304.604172768815	611.956171483132	1117.326574674526	228.749140161644	609.684493877518	853.937635240026	248.978427085420	986.059441876628	1104.113195481964	734.041425609108	1207.963640970062	1153.236680846257	621.959034641845	
126	34.808214285714	626.558969532390	998.015774036001	507.804967372850	764.361576290909	1433.307975772120	328.116608166176	893.072414660714	1355.777626279897	465.543255669765	838.235572012368	1419.505913323118	654.411923296577	786.986691833779	1485.472330633691	480.786492474506	859.440124942218	930.791462424941	603.436532721658	823.595617329642	950.864832279971	330.060343886548	853.991262616304	718.593971854849	579.165459769674	746.963042172680	626.732802002247	640.174027419274	805.906397120764	559.163217355749	560.910037704938	783.551427191990	472.443983600749	564.288264401327	898.119321786096	762.886260797527	360.456581698536	841.494220547906	631.572089632493	292.059783080640	945.382474652915	573.858546054790	351.056444146950	969.833434359333	508.473677850294	350.603112441502	956.482461152016	436.452968823319	342.576916191578	893.395386043894	303.129536414199	298.305955603138	984.778818749995	209.135162832011	354.618697996654	740.759398264468	391.062640275372	570.346533586038	651.831757296724	300.199227420540	629.183643816975	678.378722150529	200.271050147779	565.350263458603	524.211933895454	44.829162086197	528.929792943986	695.781476987760	96.304338670182	569.093930013637	605.530917771381	36.454681363411	605.400527753524	813.924626176203	40.912786471420	600.366378795238	902.666019772390	36.274173543765	399.014038101866	974.624262832395	38.094091393997	316.646019830848	1049.278486562588	110.185964717945	336.720230872184	1181.010465739508	73.590865856789	307.425677225168	614.705763869046	1115.068510336026	225.372991953267	614.808449453501	851.611634503210	245.651065303899	988.130748325940	1104.773295306146	732.151445814548	1208.249386847156	1158.973792540147	619.348865133666	
127	34.821000000000	628.284854876177	996.903629531086	505.101529043902	765.734160934463	1431.862306696037	325.140734379282	894.095808623670	1355.035086876907	463.319382580423	838.235740182314	1419.140477355072	651.793391639955	787.632648267092	1484.575333629055	477.718048780102	860.804211567696	929.682191031312	602.029637547498	826.270230126032	949.611220113773	328.650189295211	855.060092026082	717.263924711527	577.918352971896	747.455592075904	625.772959174119	638.556191437900	806.405256873896	557.787611783155	559.531908598270	783.348246799838	470.540860370857	562.856652462845	900.407865296162	761.134038921263	359.856840062211	843.072938162480	630.504076039867	291.324463203790	946.316437537391	572.551436068846	351.268061392721	969.539225527924	506.442145169767	351.147043913739	956.129666158890	434.212097791955	342.679399763140	892.000646123204	301.447341055656	298.287014820515	981.897665168448	206.597857222223	355.448585601099	739.227732590391	389.670640622246	569.120020594722	648.956029986063	300.280196641075	628.294408532419	673.885455772531	199.817121890900	564.830369898022	517.890248915435	45.580879599590	528.989078295149	689.691648590169	96.385395023633	569.167311098541	599.232998230853	36.728251715200	605.433308377597	807.684116247237	40.437126321945	600.473059967148	896.289611354347	36.160462762746	399.527565135079	968.689522706645	36.713504772275	317.419224182066	1045.407495857806	106.417187897062	338.648640935701	1176.454297096296	66.053650392510	309.858117062226	618.194645373185	1112.570434386072	221.839192268046	620.546173568135	849.082230995083	241.871755301256	989.642899563161	1105.340474919814	730.564724136686	1208.295629131004	1163.459927318473	617.166428038401	
128	34.833785714286	629.959460606238	996.053214740192	502.359357258142	767.259720280566	1430.601315823358	322.059982167762	895.233881744005	1354.461673819015	461.021311397930	838.406841368821	1419.063429897913	649.079772683635	788.459343918256	1483.920113123252	474.505280370426	862.135572867448	928.735812887035	600.440975561487	828.814187781398	948.729461626029	327.101248529001	856.217250677322	716.132651251340	576.378587428919	748.220292074991	624.914848382662	636.741563950452	807.269244757238	556.554489232048	557.969001228093	783.639960555813	468.632770901235	561.366282265418	902.712699633940	759.955105090579	359.097220093035	844.919093884880	630.038085934542	290.310781007146	947.500909466517	571.844832608599	351.210234405700	969.399337765046	504.968924878908	351.393202297635	955.976132515298	432.515345893136	342.468126222416	890.905939179428	300.353436488003	297.722110727688	979.173017672963	204.655010732330	355.855382383098	738.025498488710	388.357763908289	567.809559361481	646.313067071534	300.583179888966	627.303010483486	669.596883156199	199.552711360993	564.304415848096	511.638183584008	46.725718717887	529.071626182699	683.774686558341	96.564603826715	569.295360091610	592.999868001721	37.198212495416	605.474716723167	801.500533237775	39.925321518482	600.583883389981	890.215980514670	36.323369368017	399.690583085955	963.016926042742	35.788465990323	317.816499898997	1041.474515543021	103.436290078951	340.055354796412	1171.888939108058	59.884665735519	311.774992756257	622.451360600483	1109.895511380267	218.176700921947	626.910724768724	846.414058787621	237.654106775839	990.537318889682	1105.812006301484	729.274719928975	1208.120582014151	1166.649646558394	615.414857368451	
